<?xml version="1.0" encoding="utf-8"?>
<svg width="14" height="16" viewBox="0 0 14 16" fill="none" xmlns="http://www.w3.org/2000/svg">
  <g>
    <path d="M7 0C7 0 14 4 14 4L14 12L7 16L0 12L0 4C0 4 7 0 7 0Z" fill="#6CB33E" fill-rule="evenodd" />
    <g transform="translate(2 3)">
      <path d="M4.02116 0C4.02116 0 8.04233 2.32804 8.04233 2.32804L8.04233 6.98413L4.02116 9.31217L0 6.98413L0 2.32804C0 2.32804 4.02116 0 4.02116 0ZM0.84668 2.81614C0.84668 2.81614 0.84668 2.81816 0.84668 2.81816L4.02128 4.65609L4.02128 8.33398L7.19589 6.49605L7.19589 2.81614L4.02128 0.97821C4.02128 0.97821 0.84668 2.81614 0.84668 2.81614Z" fill="#F6F5F4" transform="translate(0.979 0.344)" />
    </g>
  </g>
</svg>